Coordinates
version=1
nRows=5
nColumns=40
inDegrees=yes

Units are S.I. units (second, meters, Newtons, ...)
Angles are in degrees.

endheader
time	pelvis_tilt	pelvis_list	pelvis_rotation	pelvis_tx	pelvis_ty	pelvis_tz	hip_flexion_r	hip_adduction_r	hip_rotation_r	knee_angle_r	knee_angle_r_beta	ankle_angle_r	subtalar_angle_r	mtp_angle_r	hip_flexion_l	hip_adduction_l	hip_rotation_l	knee_angle_l	knee_angle_l_beta	ankle_angle_l	subtalar_angle_l	mtp_angle_l	lumbar_extension	lumbar_bending	lumbar_rotation	arm_flex_r	arm_add_r	arm_rot_r	elbow_flex_r	pro_sup_r	wrist_flex_r	wrist_dev_r	arm_flex_l	arm_add_l	arm_rot_l	elbow_flex_l	pro_sup_l	wrist_flex_l	wrist_dev_l
     57.45000000	     -6.70285713	     -5.82188553	     -0.24601977	      0.88008370	      0.92896881	      0.42946269	     36.96926910	     -2.80542247	     -5.28852938	     62.32230418	     62.32230418	      5.38296844	    -19.06308691	     14.61802949	     14.66891202	     -5.47743061	     -3.10475497	     22.41959453	     22.41959453	     16.77968595	    -10.48461441	      3.03905727	    -11.74712452	      5.92752208	      0.53904544	     -1.36452030	    -17.25331354	     -3.20869254	     24.42579251	     47.26146794	      0.00000000	      0.00000000	      4.02972858	    -13.93922250	      0.44804248	     61.65264885	     46.28250552	      0.00000000	      0.00000000
     57.46257143	     -6.52757202	     -5.97939561	     -0.73442379	      0.87941025	      0.92942236	      0.43017736	     37.29032210	     -2.32332753	     -5.23601452	     59.81814153	     59.81814153	      5.16433912	    -18.89357617	     14.05261894	     13.80103430	     -5.69742700	     -3.33017724	     22.06428255	     22.06428255	     17.01194940	    -10.73559702	      3.11691043	    -11.96455889	      6.09178542	      0.56311726	     -2.10653038	    -17.54635178	     -3.43772110	     24.21034144	     47.27364766	      0.00000000	      0.00000000	      4.15110119	    -13.84386898	      0.64354009	     62.77703265	     46.29522007	      0.00000000	      0.00000000
     57.47514286	     -6.54339546	     -6.10286500	     -1.24441151	      0.87872474	      0.92956466	      0.43110091	     37.64458608	     -1.84207369	     -5.23178456	     56.90838833	     56.90838833	      5.01496051	    -18.64204611	     13.63850369	     13.13771881	     -5.90086572	     -3.61221452	     21.70818254	     21.70818254	     17.21837265	    -10.93988485	      3.16288953	    -11.92626033	      6.23623609	      0.40150444	     -2.66618511	    -17.72749514	     -3.62416496	     24.09968219	     47.28263465	      0.00000000	      0.00000000	      4.23446790	    -13.88089516	      0.78744356	     63.50175186	     46.30259657	      0.00000000	      0.00000000
     57.48771429	     -6.42897509	     -6.10797294	     -1.76966224	      0.87832139	      0.92982040	      0.43198968	     37.42361840	     -1.60591844	     -5.49605515	     53.17739628	     53.17739628	      3.08796927	    -18.50230985	      7.42057332	     12.24068003	     -5.94742398	     -3.92985657	     21.22905345	     21.22905345	     17.30300914	    -11.20134773	      3.02254689	    -12.05728780	      6.21736904	      0.48706642	     -3.42413696	    -17.67739555	     -5.76891113	     24.44746247	     47.34574675	      0.00000000	      0.00000000	      4.21526152	    -14.16656412	      1.62259487	     65.35153429	     46.38152656	      0.00000000	      0.00000000
     57.50028571	     -6.38759231	     -6.13471106	     -2.28290987	      0.87797129	      0.92994568	      0.43310218	     37.24682677	     -1.20367791	     -5.67162478	     49.39115428	     49.39115428	      2.62895352	    -17.94135528	      5.88029327	     11.39648909	     -6.04036322	     -4.32425427	     20.70624425	     20.70624425	     17.46240931	    -11.27106109	      2.98268452	    -12.07850462	      6.23886884	      0.50023545	     -3.97349519	    -17.67945856	     -6.49735487	     24.49779812	     47.35939859	      0.00000000	      0.00000000	      4.33400114	    -14.21013251	      1.87599428	     66.68592663	     46.42791002	      0.00000000	      0.00000000
